<?xml version="1.0" encoding="utf-8"?>
<!-- Generator: Adobe Illustrator 16.0.0, SVG Export Plug-In . SVG Version: 6.00 Build 0)  -->
<!DOCTYPE svg PUBLIC "-//W3C//DTD SVG 1.1//EN" "http://www.w3.org/Graphics/SVG/1.1/DTD/svg11.dtd">
<svg version="1.1" id="Layer_1" xmlns="http://www.w3.org/2000/svg" xmlns:xlink="http://www.w3.org/1999/xlink" x="0px" y="0px"
	 width="310px" height="310px" viewBox="0 0 310 310" enable-background="new 0 0 310 310" xml:space="preserve">
<g>
	<path fill="#DAC581" d="M52.849,132.796c0-0.963,0.554-1.882,1.665-2.75c1.108-0.869,2.533-1.64,4.271-2.316
		c1.736-0.674,3.69-1.181,5.862-1.52c2.171-0.337,4.318-0.507,6.441-0.507c6.37,0,11.386,1.592,15.055,4.777
		c3.667,3.185,5.501,7.77,5.501,13.752v24.03c0.29,2.221,1.23,3.98,2.823,5.283s3.352,1.954,5.284,1.954
		c2.026,0,3.667-0.724,4.922-2.171c1.253-1.447,2.244-3.258,2.967-5.43c0.724-2.17,1.206-4.582,1.448-7.237
		c0.24-2.652,0.362-5.14,0.362-7.455c0-12.739-3.064-22.678-9.192-29.82c-6.13-7.141-15.612-10.712-28.445-10.712
		c-7.237,0-13.271,1.158-18.095,3.474c-4.827,2.316-8.735,5.429-11.726,9.337c-2.992,3.909-5.116,8.396-6.369,13.463
		c-1.255,5.066-1.882,10.35-1.882,15.851c0,5.116,0.578,10.061,1.736,14.838s3.04,9,5.646,12.666
		c2.604,3.67,6.055,6.609,10.35,8.831c4.293,2.22,9.626,3.329,15.996,3.329c3.185,0,5.885-0.242,8.106-0.725
		c2.219-0.483,4.125-0.99,5.718-1.521c1.592-0.53,2.918-1.038,3.98-1.52c1.062-0.484,1.931-0.724,2.606-0.724
		c0.963,0,1.712,0.385,2.244,1.157c0.528,0.771,0.796,1.447,0.796,2.026c0,1.061-0.749,2.074-2.244,3.04
		c-1.497,0.964-3.427,1.81-5.791,2.532c-2.366,0.725-4.994,1.326-7.889,1.811c-2.896,0.48-5.743,0.725-8.541,0.725
		c-5.211,0-10.206-0.918-14.982-2.75c-4.777-1.836-9-4.634-12.667-8.396c-3.669-3.764-6.611-8.563-8.83-14.403
		c-2.221-5.838-3.33-12.762-3.33-20.773c0-6.754,0.869-13.148,2.605-19.181c1.737-6.03,4.438-11.267,8.105-15.707
		c3.667-4.438,8.372-7.962,14.114-10.567c5.741-2.606,12.617-3.909,20.628-3.909c14.378,0,25.405,4.006,33.077,12.015
		c7.672,8.011,11.509,19.542,11.509,34.598c0,3.86-0.29,7.552-0.869,11.074c-0.579,3.523-1.569,6.658-2.968,9.409
		c-1.399,2.75-3.209,4.946-5.428,6.587c-2.221,1.643-4.972,2.461-8.251,2.461c-3.668,0-6.781-0.94-9.337-2.822
		c-2.559-1.883-4.125-4.076-4.705-6.588c-2.511,2.606-5.067,4.61-7.672,6.008c-2.605,1.4-5.985,2.1-10.133,2.1
		c-2.512,0-4.85-0.289-7.021-0.868s-4.079-1.47-5.718-2.678c-1.643-1.206-2.945-2.823-3.909-4.851
		c-0.966-2.025-1.447-4.486-1.447-7.383c0-3.279,0.651-5.981,1.954-8.105c1.303-2.122,3.186-3.787,5.646-4.994
		c2.461-1.206,5.45-2.049,8.975-2.534c3.522-0.481,7.455-0.724,11.798-0.724h6.226v-2.75c0-4.246-1.137-7.358-3.402-9.337
		c-2.27-1.977-5.863-2.968-10.785-2.968c-2.315,0-4.223,0.195-5.718,0.579c-1.497,0.387-2.75,0.796-3.764,1.23
		c-1.014,0.435-1.834,0.846-2.462,1.23c-0.629,0.387-1.229,0.579-1.81,0.579c-0.966,0-1.714-0.482-2.244-1.448
		C53.113,134.438,52.849,133.57,52.849,132.796z M84.117,154.221h-5.936c-2.992,0-5.768,0.122-8.324,0.362
		c-2.558,0.242-4.754,0.724-6.586,1.448c-1.834,0.724-3.281,1.762-4.343,3.111c-1.063,1.354-1.592,3.186-1.592,5.502
		c0,3.379,1.061,5.789,3.185,7.237c2.122,1.447,4.729,2.171,7.817,2.171c2.412,0,4.583-0.361,6.515-1.086
		c1.93-0.724,3.594-1.664,4.994-2.822c1.397-1.158,2.461-2.437,3.186-3.836c0.724-1.397,1.085-2.772,1.085-4.125L84.117,154.221
		L84.117,154.221z"/>
	<path fill="#5D4257" d="M158.521,187.371c-3.764,0-7.335-0.749-10.712-2.244c-3.379-1.495-6.297-3.497-8.758-6.008
		c-2.461-2.508-4.415-5.403-5.863-8.686c-1.448-3.279-2.171-6.707-2.171-10.277v-38.651c0-0.868,0.457-1.687,1.375-2.46
		c0.916-0.771,2.049-1.158,3.402-1.158c1.253,0,2.338,0.387,3.257,1.158c0.916,0.773,1.375,1.592,1.375,2.46v38.651
		c0,2.314,0.457,4.585,1.375,6.804c0.916,2.222,2.194,4.197,3.836,5.935c1.64,1.737,3.569,3.139,5.791,4.198
		c2.219,1.063,4.583,1.593,7.093,1.593c2.509,0,4.851-0.506,7.021-1.521c2.172-1.013,4.076-2.39,5.719-4.126
		c1.64-1.736,2.942-3.714,3.908-5.936c0.964-2.219,1.446-4.535,1.446-6.947V121.36c0-0.963,0.457-1.785,1.375-2.461
		c0.916-0.674,2.051-1.013,3.402-1.013s2.461,0.339,3.329,1.013c0.869,0.676,1.303,1.498,1.303,2.461v38.796
		c0,3.668-0.724,7.143-2.171,10.423s-3.427,6.151-5.936,8.612c-2.512,2.461-5.429,4.439-8.758,5.936
		C165.832,186.622,162.285,187.371,158.521,187.371z"/>
	<path fill="#5D4257" d="M212.659,165.078c0,4.729,0.988,8.033,2.968,9.916c1.978,1.882,5.477,2.822,10.495,2.822h4.054
		c1.351,0,2.411,0.435,3.185,1.303c0.771,0.869,1.158,1.835,1.158,2.896c0,1.157-0.387,2.17-1.158,3.039
		c-0.772,0.868-1.834,1.303-3.185,1.303h-4.054c-7.527,0-13.224-1.664-17.081-4.993c-3.861-3.329-5.791-8.759-5.791-16.285V88.79
		c0-1.061,0.507-1.905,1.521-2.533c1.014-0.627,2.049-0.941,3.112-0.941c1.158,0,2.243,0.314,3.257,0.941
		c1.014,0.628,1.521,1.472,1.521,2.533v29.097h18.675c0.963,0,1.76,0.387,2.388,1.158c0.627,0.773,0.941,1.689,0.941,2.75
		c0,1.063-0.314,1.979-0.941,2.75c-0.628,0.774-1.425,1.158-2.388,1.158H212.66L212.659,165.078L212.659,165.078z"/>
	<path fill="#5D4257" d="M251.165,85.604c1.736,0,3.208,0.579,4.415,1.737c1.206,1.158,1.81,2.558,1.81,4.198
		c0,1.642-0.604,3.064-1.81,4.27c-1.207,1.208-2.679,1.81-4.415,1.81c-1.834,0-3.379-0.602-4.632-1.81
		c-1.257-1.206-1.883-2.628-1.883-4.27c0-1.64,0.626-3.04,1.883-4.198C247.786,86.184,249.331,85.604,251.165,85.604z
		 M251.165,117.886c1.351,0,2.482,0.314,3.401,0.941c0.916,0.629,1.375,1.472,1.375,2.533v61.233c0,0.966-0.459,1.834-1.375,2.605
		c-0.919,0.772-2.052,1.157-3.401,1.157c-1.354,0-2.461-0.385-3.329-1.157c-0.869-0.771-1.303-1.64-1.303-2.605V121.36
		c0-1.061,0.434-1.904,1.303-2.533C248.704,118.201,249.813,117.886,251.165,117.886z"/>
	<path fill="#5D4257" d="M279.972,75.906c1.351,0,2.483,0.313,3.402,0.941c0.916,0.629,1.375,1.473,1.375,2.533v103.214
		c0,0.967-0.459,1.834-1.375,2.605c-0.919,0.773-2.053,1.158-3.402,1.158c-1.353,0-2.461-0.385-3.329-1.158
		c-0.869-0.771-1.303-1.641-1.303-2.605V79.38c0-1.061,0.434-1.904,1.303-2.533C277.511,76.22,278.619,75.906,279.972,75.906z"/>
</g>
<g enable-background="new    ">
	<path fill="#58595B" d="M29.01,219.376c0-0.469,0.298-0.725,0.896-0.768h5.888c0.917,0,1.781,0.123,2.592,0.367
		c0.811,0.246,1.509,0.636,2.096,1.168c0.587,0.534,1.051,1.232,1.392,2.097c0.341,0.863,0.512,1.915,0.512,3.151v0.32
		c0,1.237-0.171,2.288-0.512,3.152c-0.341,0.863-0.811,1.567-1.408,2.111c-0.598,0.544-1.302,0.939-2.112,1.185
		c-0.811,0.245-1.686,0.368-2.624,0.368h-4.608v8.64c0,0.277-0.112,0.485-0.336,0.624S30.323,242,30.066,242
		c-0.277,0-0.523-0.069-0.736-0.208c-0.213-0.139-0.32-0.347-0.32-0.624V219.376z M31.122,220.56v10.145h4.608
		c1.429,0,2.544-0.4,3.344-1.2c0.8-0.8,1.2-2.032,1.2-3.696v-0.384c0-1.664-0.4-2.891-1.2-3.68c-0.8-0.789-1.915-1.185-3.344-1.185
		H31.122z"/>
	<path fill="#58595B" d="M50.098,226.672c0.811,0,1.584,0.155,2.32,0.464c0.736,0.31,1.387,0.736,1.952,1.28
		c0.565,0.544,1.013,1.179,1.344,1.904s0.496,1.504,0.496,2.336v3.487c0,0.79-0.166,1.553-0.496,2.288
		c-0.331,0.736-0.779,1.382-1.344,1.937c-0.565,0.555-1.216,1.003-1.952,1.344c-0.736,0.341-1.509,0.512-2.32,0.512
		c-0.811,0-1.579-0.165-2.304-0.496c-0.726-0.33-1.365-0.778-1.92-1.344c-0.555-0.564-0.998-1.21-1.328-1.936
		s-0.496-1.493-0.496-2.305v-3.487c0-0.789,0.16-1.547,0.48-2.272c0.32-0.725,0.752-1.365,1.296-1.92s1.184-0.992,1.92-1.312
		C48.482,226.832,49.266,226.672,50.098,226.672z M54.13,232.656c0-0.513-0.107-1.014-0.32-1.504
		c-0.213-0.491-0.501-0.923-0.864-1.296c-0.363-0.373-0.79-0.678-1.28-0.912s-1.013-0.353-1.568-0.353
		c-0.555,0-1.078,0.118-1.568,0.353c-0.491,0.234-0.912,0.539-1.264,0.912s-0.629,0.805-0.832,1.296
		c-0.203,0.49-0.304,0.991-0.304,1.504v3.487c0,0.534,0.101,1.052,0.304,1.553c0.203,0.501,0.485,0.943,0.848,1.328
		c0.362,0.384,0.784,0.693,1.264,0.928s0.997,0.352,1.552,0.352c0.555,0,1.077-0.117,1.568-0.352s0.917-0.544,1.28-0.928
		c0.362-0.385,0.65-0.827,0.864-1.328c0.213-0.501,0.32-1.019,0.32-1.553V232.656z"/>
	<path fill="#58595B" d="M63.634,240.464c1.216,0,2.069-0.224,2.56-0.672c0.49-0.448,0.736-0.981,0.736-1.6
		c0-0.704-0.198-1.248-0.592-1.633c-0.395-0.384-0.88-0.692-1.456-0.928c-0.576-0.234-1.211-0.442-1.904-0.624
		c-0.693-0.181-1.328-0.421-1.904-0.72s-1.062-0.693-1.456-1.185c-0.395-0.49-0.592-1.184-0.592-2.079
		c0-0.513,0.09-1.024,0.272-1.536c0.181-0.513,0.474-0.977,0.88-1.393c0.405-0.416,0.928-0.757,1.568-1.023s1.418-0.4,2.336-0.4
		c0.533,0,1.056,0.048,1.568,0.145c0.512,0.096,0.97,0.213,1.376,0.352c0.405,0.139,0.73,0.304,0.976,0.496s0.368,0.384,0.368,0.576
		c0,0.171-0.08,0.395-0.24,0.672c-0.16,0.277-0.368,0.416-0.624,0.416c-0.128,0-0.288-0.048-0.48-0.145
		c-0.192-0.096-0.427-0.196-0.704-0.304c-0.278-0.106-0.598-0.208-0.96-0.304c-0.363-0.096-0.779-0.145-1.248-0.145
		c-0.598,0-1.099,0.08-1.504,0.24c-0.406,0.16-0.736,0.363-0.992,0.608s-0.438,0.518-0.544,0.815
		c-0.107,0.299-0.16,0.576-0.16,0.832c0,0.619,0.197,1.088,0.592,1.408c0.395,0.32,0.885,0.582,1.472,0.784
		c0.586,0.203,1.221,0.395,1.904,0.576c0.682,0.182,1.317,0.438,1.904,0.768c0.586,0.331,1.077,0.779,1.472,1.344
		c0.395,0.565,0.592,1.328,0.592,2.288c0,1.28-0.448,2.288-1.344,3.024s-2.166,1.104-3.808,1.104c-0.747,0-1.43-0.074-2.048-0.224
		c-0.619-0.149-1.147-0.336-1.584-0.56c-0.438-0.225-0.779-0.475-1.024-0.752s-0.368-0.533-0.368-0.769
		c0-0.213,0.069-0.427,0.208-0.64c0.138-0.213,0.314-0.32,0.528-0.32c0.17,0,0.352,0.08,0.544,0.24s0.442,0.331,0.752,0.512
		c0.309,0.182,0.693,0.353,1.152,0.512C62.317,240.384,62.908,240.464,63.634,240.464z"/>
	<path fill="#58595B" d="M73.97,237.296c0,1.046,0.218,1.776,0.656,2.192c0.437,0.416,1.21,0.624,2.32,0.624h0.896
		c0.299,0,0.533,0.096,0.704,0.288c0.17,0.191,0.256,0.405,0.256,0.64c0,0.256-0.085,0.479-0.256,0.672
		C78.375,241.904,78.14,242,77.842,242h-0.896c-1.664,0-2.923-0.368-3.776-1.104c-0.854-0.736-1.28-1.937-1.28-3.601v-16.864
		c0-0.234,0.112-0.421,0.336-0.56s0.453-0.208,0.688-0.208c0.256,0,0.496,0.069,0.72,0.208c0.224,0.139,0.336,0.325,0.336,0.56
		v6.433h4.128c0.213,0,0.389,0.085,0.528,0.256c0.139,0.171,0.208,0.373,0.208,0.607c0,0.235-0.069,0.438-0.208,0.608
		c-0.139,0.171-0.315,0.256-0.528,0.256H73.97V237.296z"/>
	<path fill="#58595B" d="M92.818,224.432c-0.021-0.341-0.085-0.735-0.192-1.184c-0.107-0.448-0.32-0.869-0.64-1.264
		s-0.768-0.73-1.344-1.009c-0.576-0.276-1.344-0.416-2.304-0.416c-1.494,0-2.635,0.396-3.424,1.185
		c-0.79,0.789-1.184,2.016-1.184,3.68v9.92c0,1.686,0.4,2.923,1.2,3.712c0.8,0.79,1.979,1.185,3.536,1.185
		c0.96,0,1.717-0.133,2.272-0.4c0.555-0.267,0.976-0.597,1.264-0.992c0.288-0.395,0.485-0.82,0.592-1.279
		c0.106-0.459,0.181-0.88,0.224-1.265c0.064-0.555,0.416-0.832,1.056-0.832c0.362,0,0.629,0.086,0.8,0.256
		c0.17,0.172,0.256,0.523,0.256,1.057c0,0.726-0.149,1.413-0.448,2.063c-0.299,0.651-0.736,1.228-1.312,1.729
		s-1.28,0.896-2.112,1.184s-1.771,0.433-2.816,0.433c-0.896,0-1.75-0.123-2.56-0.368c-0.811-0.245-1.515-0.641-2.112-1.185
		c-0.598-0.544-1.072-1.248-1.424-2.111c-0.352-0.864-0.528-1.926-0.528-3.185v-9.92c0-1.237,0.181-2.288,0.544-3.151
		c0.362-0.864,0.848-1.568,1.456-2.112c0.608-0.544,1.317-0.938,2.128-1.185c0.81-0.244,1.674-0.367,2.592-0.367
		c1.045,0,1.979,0.144,2.8,0.432s1.509,0.678,2.064,1.168c0.555,0.491,0.981,1.056,1.28,1.696c0.298,0.64,0.448,1.322,0.448,2.048
		c0,0.533-0.085,0.88-0.256,1.04c-0.171,0.16-0.438,0.24-0.8,0.24c-0.363,0-0.624-0.075-0.784-0.225
		C92.929,224.859,92.839,224.667,92.818,224.432z"/>
	<path fill="#58595B" d="M103.761,240.24c1.493,0,2.661-0.368,3.504-1.104c0.843-0.735,1.264-1.84,1.264-3.312
		c0-1.173-0.262-2.097-0.784-2.769c-0.523-0.672-1.179-1.216-1.968-1.632c-0.79-0.416-1.643-0.772-2.56-1.072
		c-0.917-0.298-1.771-0.672-2.56-1.119c-0.79-0.448-1.445-1.046-1.968-1.792c-0.523-0.747-0.784-1.771-0.784-3.072
		c0-1.173,0.213-2.133,0.64-2.88c0.426-0.747,0.97-1.339,1.632-1.776c0.661-0.437,1.392-0.741,2.192-0.912
		c0.8-0.17,1.573-0.256,2.32-0.256c0.597,0,1.216,0.048,1.856,0.145c0.64,0.096,1.221,0.229,1.744,0.399
		c0.522,0.171,0.949,0.379,1.28,0.624c0.331,0.245,0.496,0.507,0.496,0.784c0,0.214-0.08,0.464-0.24,0.752s-0.39,0.432-0.688,0.432
		c-0.149,0-0.336-0.063-0.56-0.191s-0.507-0.267-0.848-0.416s-0.763-0.288-1.264-0.416c-0.501-0.128-1.104-0.192-1.808-0.192
		c-0.598,0-1.173,0.06-1.728,0.176c-0.555,0.118-1.051,0.32-1.488,0.608c-0.438,0.288-0.784,0.672-1.04,1.152
		c-0.256,0.479-0.384,1.071-0.384,1.775c0,0.981,0.261,1.744,0.784,2.288c0.522,0.544,1.179,0.998,1.968,1.36
		s1.643,0.693,2.56,0.992c0.917,0.299,1.771,0.709,2.56,1.231c0.789,0.523,1.445,1.216,1.968,2.08
		c0.522,0.864,0.784,2.032,0.784,3.504c0,1.131-0.166,2.112-0.496,2.944s-0.795,1.52-1.392,2.063
		c-0.598,0.544-1.312,0.944-2.144,1.2s-1.739,0.384-2.72,0.384c-1.024,0-1.941-0.128-2.752-0.384
		c-0.811-0.256-1.499-0.56-2.064-0.912c-0.565-0.352-0.998-0.725-1.296-1.12c-0.299-0.395-0.448-0.74-0.448-1.04
		c0-0.256,0.101-0.517,0.304-0.783c0.203-0.267,0.421-0.4,0.656-0.4c0.213,0,0.427,0.139,0.64,0.416
		c0.213,0.277,0.512,0.581,0.896,0.912c0.384,0.331,0.885,0.635,1.504,0.912S102.759,240.24,103.761,240.24z"/>
	<path fill="#58595B" d="M119.569,240.24c1.493,0,2.661-0.368,3.504-1.104c0.843-0.735,1.264-1.84,1.264-3.312
		c0-1.173-0.262-2.097-0.784-2.769c-0.523-0.672-1.179-1.216-1.968-1.632c-0.79-0.416-1.643-0.772-2.56-1.072
		c-0.917-0.298-1.771-0.672-2.56-1.119c-0.79-0.448-1.445-1.046-1.968-1.792c-0.523-0.747-0.784-1.771-0.784-3.072
		c0-1.173,0.213-2.133,0.64-2.88c0.426-0.747,0.97-1.339,1.632-1.776c0.661-0.437,1.392-0.741,2.192-0.912
		c0.8-0.17,1.573-0.256,2.32-0.256c0.597,0,1.216,0.048,1.856,0.145c0.64,0.096,1.221,0.229,1.744,0.399
		c0.522,0.171,0.949,0.379,1.28,0.624c0.331,0.245,0.496,0.507,0.496,0.784c0,0.214-0.08,0.464-0.24,0.752s-0.39,0.432-0.688,0.432
		c-0.149,0-0.336-0.063-0.56-0.191s-0.507-0.267-0.848-0.416s-0.763-0.288-1.264-0.416c-0.501-0.128-1.104-0.192-1.808-0.192
		c-0.598,0-1.173,0.06-1.728,0.176c-0.555,0.118-1.051,0.32-1.488,0.608c-0.438,0.288-0.784,0.672-1.04,1.152
		c-0.256,0.479-0.384,1.071-0.384,1.775c0,0.981,0.261,1.744,0.784,2.288c0.522,0.544,1.179,0.998,1.968,1.36
		s1.643,0.693,2.56,0.992c0.917,0.299,1.771,0.709,2.56,1.231c0.789,0.523,1.445,1.216,1.968,2.08
		c0.522,0.864,0.784,2.032,0.784,3.504c0,1.131-0.166,2.112-0.496,2.944s-0.795,1.52-1.392,2.063
		c-0.598,0.544-1.312,0.944-2.144,1.2s-1.739,0.384-2.72,0.384c-1.024,0-1.941-0.128-2.752-0.384
		c-0.811-0.256-1.499-0.56-2.064-0.912c-0.565-0.352-0.998-0.725-1.296-1.12c-0.299-0.395-0.448-0.74-0.448-1.04
		c0-0.256,0.101-0.517,0.304-0.783c0.203-0.267,0.421-0.4,0.656-0.4c0.213,0,0.427,0.139,0.64,0.416
		c0.213,0.277,0.512,0.581,0.896,0.912c0.384,0.331,0.885,0.635,1.504,0.912S118.566,240.24,119.569,240.24z"/>
	<path fill="#58595B" d="M142.129,242.224c-0.832,0-1.622-0.165-2.368-0.496c-0.747-0.33-1.392-0.772-1.936-1.327
		s-0.976-1.195-1.296-1.92c-0.32-0.726-0.48-1.483-0.48-2.272v-8.544c0-0.192,0.101-0.373,0.304-0.544
		c0.202-0.171,0.453-0.256,0.752-0.256c0.277,0,0.517,0.085,0.72,0.256s0.304,0.352,0.304,0.544v8.544
		c0,0.512,0.101,1.014,0.304,1.504c0.202,0.491,0.485,0.928,0.848,1.313c0.363,0.384,0.789,0.693,1.28,0.928
		c0.49,0.234,1.013,0.352,1.568,0.352c0.555,0,1.072-0.111,1.552-0.336c0.48-0.224,0.901-0.527,1.264-0.912
		c0.362-0.384,0.65-0.82,0.864-1.312c0.213-0.49,0.32-1.003,0.32-1.536v-8.576c0-0.213,0.101-0.395,0.304-0.544
		c0.202-0.148,0.453-0.224,0.752-0.224c0.298,0,0.544,0.075,0.736,0.224c0.192,0.149,0.288,0.331,0.288,0.544v8.576
		c0,0.811-0.16,1.579-0.48,2.304c-0.32,0.726-0.758,1.36-1.312,1.904c-0.555,0.544-1.2,0.981-1.936,1.312
		C143.744,242.059,142.961,242.224,142.129,242.224z"/>
	<path fill="#58595B" d="M154.096,237.296c0,1.046,0.218,1.776,0.656,2.192c0.437,0.416,1.211,0.624,2.32,0.624h0.896
		c0.299,0,0.533,0.096,0.704,0.288c0.17,0.191,0.256,0.405,0.256,0.64c0,0.256-0.086,0.479-0.256,0.672
		c-0.171,0.192-0.405,0.288-0.704,0.288h-0.896c-1.664,0-2.923-0.368-3.776-1.104c-0.854-0.736-1.28-1.937-1.28-3.601v-16.864
		c0-0.234,0.112-0.421,0.336-0.56s0.453-0.208,0.688-0.208c0.256,0,0.496,0.069,0.72,0.208c0.224,0.139,0.336,0.325,0.336,0.56
		v6.433h4.128c0.213,0,0.389,0.085,0.527,0.256s0.208,0.373,0.208,0.607c0,0.235-0.069,0.438-0.208,0.608s-0.314,0.256-0.527,0.256
		h-4.128V237.296z"/>
	<path fill="#58595B" d="M162.608,219.728c0.385,0,0.709,0.129,0.977,0.385c0.267,0.256,0.4,0.565,0.4,0.928
		c0,0.363-0.134,0.678-0.4,0.944c-0.268,0.267-0.592,0.399-0.977,0.399c-0.405,0-0.746-0.133-1.023-0.399s-0.416-0.581-0.416-0.944
		c0-0.362,0.139-0.672,0.416-0.928S162.202,219.728,162.608,219.728z M162.608,226.864c0.299,0,0.549,0.069,0.752,0.208
		s0.305,0.325,0.305,0.56v13.536c0,0.214-0.102,0.405-0.305,0.576S162.906,242,162.608,242s-0.543-0.085-0.735-0.256
		s-0.288-0.362-0.288-0.576v-13.536c0-0.234,0.096-0.421,0.288-0.56S162.309,226.864,162.608,226.864z"/>
	<path fill="#58595B" d="M168.976,217.584c0.299,0,0.55,0.069,0.752,0.208s0.304,0.325,0.304,0.56v22.816
		c0,0.214-0.102,0.405-0.304,0.576S169.275,242,168.976,242s-0.544-0.085-0.735-0.256c-0.192-0.171-0.289-0.362-0.289-0.576v-22.816
		c0-0.234,0.097-0.421,0.289-0.56C168.432,217.653,168.677,217.584,168.976,217.584z"/>
	<path fill="#58595B" d="M175.344,219.728c0.383,0,0.709,0.129,0.976,0.385s0.399,0.565,0.399,0.928
		c0,0.363-0.133,0.678-0.399,0.944s-0.593,0.399-0.976,0.399c-0.406,0-0.748-0.133-1.024-0.399
		c-0.278-0.267-0.416-0.581-0.416-0.944c0-0.362,0.138-0.672,0.416-0.928C174.596,219.856,174.938,219.728,175.344,219.728z
		 M175.344,226.864c0.298,0,0.549,0.069,0.752,0.208c0.202,0.139,0.304,0.325,0.304,0.56v13.536c0,0.214-0.102,0.405-0.304,0.576
		c-0.203,0.171-0.454,0.256-0.752,0.256c-0.299,0-0.545-0.085-0.736-0.256c-0.192-0.171-0.288-0.362-0.288-0.576v-13.536
		c0-0.234,0.096-0.421,0.288-0.56C174.799,226.934,175.045,226.864,175.344,226.864z"/>
	<path fill="#58595B" d="M182.448,237.296c0,1.046,0.219,1.776,0.656,2.192c0.437,0.416,1.21,0.624,2.319,0.624h0.896
		c0.299,0,0.533,0.096,0.705,0.288c0.17,0.191,0.256,0.405,0.256,0.64c0,0.256-0.086,0.479-0.256,0.672
		c-0.172,0.192-0.406,0.288-0.705,0.288h-0.896c-1.663,0-2.923-0.368-3.776-1.104c-0.854-0.736-1.279-1.937-1.279-3.601v-16.864
		c0-0.234,0.111-0.421,0.336-0.56s0.453-0.208,0.688-0.208c0.256,0,0.496,0.069,0.721,0.208c0.224,0.139,0.336,0.325,0.336,0.56
		v6.433h4.128c0.213,0,0.389,0.085,0.528,0.256c0.139,0.171,0.207,0.373,0.207,0.607c0,0.235-0.068,0.438-0.207,0.608
		c-0.14,0.171-0.315,0.256-0.528,0.256h-4.128V237.296z"/>
	<path fill="#58595B" d="M188.463,227.952c-0.064-0.085-0.096-0.181-0.096-0.288c0-0.277,0.144-0.512,0.432-0.704
		s0.57-0.288,0.848-0.288c0.171,0,0.326,0.032,0.465,0.096c0.139,0.064,0.229,0.182,0.271,0.353l4.385,11.776l4.127-11.776
		c0.129-0.299,0.363-0.448,0.705-0.448c0.256,0,0.532,0.096,0.832,0.288c0.298,0.192,0.447,0.438,0.447,0.736
		c0,0.043,0,0.085,0,0.128s-0.021,0.085-0.064,0.128l-4.959,13.439c-0.32,0.875-0.668,1.781-1.041,2.721
		c-0.373,0.938-0.815,1.802-1.328,2.592c-0.512,0.789-1.104,1.439-1.775,1.952c-0.672,0.512-1.456,0.768-2.352,0.768
		c-0.277,0-0.508-0.063-0.688-0.191c-0.182-0.129-0.272-0.374-0.272-0.736c0-0.235,0.049-0.453,0.145-0.656s0.261-0.304,0.496-0.304
		c0.512,0,1.002-0.166,1.472-0.496c0.47-0.331,0.907-0.779,1.312-1.344c0.406-0.565,0.769-1.222,1.089-1.969
		c0.319-0.746,0.575-1.535,0.768-2.367L188.463,227.952z"/>
	<path fill="#58595B" d="M211.055,217.584c0.299,0,0.549,0.069,0.752,0.208s0.305,0.325,0.305,0.56v22.816
		c0,0.214-0.102,0.405-0.305,0.576S211.354,242,211.055,242s-0.544-0.085-0.736-0.256c-0.191-0.171-0.287-0.362-0.287-0.576v-22.816
		c0-0.234,0.096-0.421,0.287-0.56C210.511,217.653,210.756,217.584,211.055,217.584z"/>
	<path fill="#58595B" d="M217.422,219.728c0.385,0,0.709,0.129,0.977,0.385c0.267,0.256,0.4,0.565,0.4,0.928
		c0,0.363-0.134,0.678-0.4,0.944c-0.268,0.267-0.592,0.399-0.977,0.399c-0.405,0-0.746-0.133-1.023-0.399s-0.416-0.581-0.416-0.944
		c0-0.362,0.139-0.672,0.416-0.928S217.017,219.728,217.422,219.728z M217.422,226.864c0.299,0,0.549,0.069,0.752,0.208
		s0.305,0.325,0.305,0.56v13.536c0,0.214-0.102,0.405-0.305,0.576S217.721,242,217.422,242s-0.543-0.085-0.735-0.256
		s-0.288-0.362-0.288-0.576v-13.536c0-0.234,0.096-0.421,0.288-0.56S217.123,226.864,217.422,226.864z"/>
	<path fill="#58595B" d="M223.534,217.584c0.298,0,0.549,0.069,0.752,0.208c0.202,0.139,0.304,0.325,0.304,0.56v10.752
		c0.363-0.618,0.896-1.178,1.6-1.68c0.705-0.501,1.59-0.752,2.656-0.752c0.789,0,1.531,0.155,2.225,0.464
		c0.693,0.31,1.301,0.736,1.824,1.28c0.521,0.544,0.933,1.179,1.231,1.904s0.448,1.504,0.448,2.336v3.487
		c0,0.79-0.155,1.553-0.464,2.288c-0.31,0.736-0.726,1.382-1.248,1.937s-1.126,1.003-1.808,1.344
		c-0.684,0.341-1.398,0.512-2.145,0.512c-1.003,0-1.898-0.245-2.688-0.735c-0.79-0.491-1.355-1.066-1.696-1.729v1.408
		c0,0.214-0.097,0.405-0.288,0.576c-0.192,0.171-0.428,0.256-0.704,0.256c-0.299,0-0.544-0.085-0.735-0.256
		c-0.193-0.171-0.289-0.362-0.289-0.576v-22.816c0-0.234,0.096-0.421,0.289-0.56C222.99,217.653,223.236,217.584,223.534,217.584z
		 M232.494,232.656c0-0.513-0.107-1.014-0.32-1.504c-0.213-0.491-0.501-0.923-0.863-1.296c-0.363-0.373-0.784-0.678-1.265-0.912
		c-0.479-0.234-0.997-0.353-1.552-0.353c-0.491,0-0.965,0.091-1.424,0.272s-0.875,0.447-1.248,0.8
		c-0.373,0.352-0.672,0.779-0.896,1.28c-0.224,0.501-0.336,1.071-0.336,1.712v4.479c0,0.235,0.102,0.534,0.305,0.896
		c0.202,0.362,0.479,0.715,0.832,1.056c0.352,0.342,0.768,0.63,1.248,0.864c0.479,0.234,0.996,0.352,1.552,0.352
		c0.532,0,1.04-0.117,1.52-0.352c0.48-0.234,0.901-0.544,1.265-0.928c0.362-0.385,0.65-0.827,0.863-1.328s0.32-1.019,0.32-1.553
		V232.656z"/>
	<path fill="#58595B" d="M244.302,228.592c-0.533,0-1.051,0.107-1.552,0.32c-0.502,0.214-0.949,0.522-1.344,0.928
		c-0.396,0.405-0.715,0.896-0.961,1.472c-0.245,0.576-0.367,1.228-0.367,1.952v7.904c0,0.214-0.102,0.405-0.305,0.576
		S239.321,242,239.022,242s-0.543-0.085-0.735-0.256s-0.288-0.362-0.288-0.576v-13.536c0-0.234,0.096-0.421,0.288-0.56
		s0.437-0.208,0.735-0.208c0.277,0,0.512,0.069,0.705,0.208c0.191,0.139,0.287,0.325,0.287,0.56v1.568
		c0.363-0.641,0.906-1.222,1.633-1.744c0.725-0.522,1.609-0.784,2.655-0.784h1.12c0.234,0,0.432,0.096,0.592,0.288
		s0.24,0.416,0.24,0.672s-0.08,0.48-0.24,0.672c-0.16,0.192-0.357,0.288-0.592,0.288H244.302z"/>
	<path fill="#58595B" d="M252.91,226.672c1.066,0,1.968,0.171,2.703,0.512c0.736,0.342,1.334,0.801,1.793,1.376
		c0.458,0.576,0.789,1.238,0.992,1.984c0.201,0.747,0.303,1.515,0.303,2.304v8.32c0,0.235-0.096,0.432-0.287,0.592
		c-0.192,0.16-0.438,0.24-0.736,0.24c-0.277,0-0.507-0.08-0.688-0.24c-0.182-0.16-0.272-0.356-0.272-0.592v-1.408
		c-0.556,0.641-1.228,1.211-2.017,1.712c-0.789,0.502-1.728,0.752-2.815,0.752c-0.619,0-1.189-0.085-1.712-0.256
		c-0.523-0.17-0.981-0.432-1.376-0.784c-0.396-0.352-0.704-0.789-0.929-1.312c-0.224-0.522-0.336-1.146-0.336-1.872
		c0-0.874,0.182-1.595,0.545-2.16c0.362-0.564,0.869-1.013,1.52-1.344s1.435-0.561,2.352-0.688c0.918-0.128,1.932-0.191,3.041-0.191
		h1.631v-0.769c0-0.512-0.068-1.023-0.207-1.536c-0.139-0.512-0.357-0.976-0.656-1.392s-0.688-0.757-1.168-1.023
		s-1.062-0.4-1.744-0.4c-0.533,0-0.986,0.048-1.359,0.144c-0.374,0.097-0.694,0.203-0.961,0.32s-0.485,0.224-0.656,0.32
		c-0.17,0.096-0.319,0.144-0.447,0.144c-0.277,0-0.486-0.128-0.624-0.384c-0.14-0.256-0.208-0.501-0.208-0.736
		c0-0.213,0.128-0.416,0.384-0.607c0.256-0.192,0.593-0.362,1.009-0.513c0.416-0.148,0.879-0.271,1.391-0.367
		C251.886,226.72,252.399,226.672,252.91,226.672z M256.621,235.056h-1.344c-0.746,0-1.455,0.027-2.127,0.08
		c-0.673,0.054-1.275,0.176-1.809,0.368s-0.955,0.47-1.264,0.832c-0.311,0.363-0.465,0.854-0.465,1.472
		c0,0.939,0.268,1.616,0.801,2.032s1.194,0.624,1.984,0.624c0.512,0,1.018-0.106,1.52-0.32c0.501-0.213,0.954-0.484,1.359-0.815
		s0.73-0.693,0.977-1.088c0.244-0.395,0.367-0.773,0.367-1.137V235.056z"/>
	<path fill="#58595B" d="M268.909,228.592c-0.533,0-1.051,0.107-1.552,0.32c-0.502,0.214-0.949,0.522-1.344,0.928
		c-0.396,0.405-0.715,0.896-0.961,1.472c-0.245,0.576-0.367,1.228-0.367,1.952v7.904c0,0.214-0.102,0.405-0.305,0.576
		S263.928,242,263.629,242s-0.543-0.085-0.735-0.256s-0.288-0.362-0.288-0.576v-13.536c0-0.234,0.096-0.421,0.288-0.56
		s0.437-0.208,0.735-0.208c0.277,0,0.512,0.069,0.705,0.208c0.191,0.139,0.287,0.325,0.287,0.56v1.568
		c0.363-0.641,0.906-1.222,1.633-1.744c0.725-0.522,1.609-0.784,2.655-0.784h1.12c0.234,0,0.432,0.096,0.592,0.288
		s0.24,0.416,0.24,0.672s-0.08,0.48-0.24,0.672c-0.16,0.192-0.357,0.288-0.592,0.288H268.909z"/>
	<path fill="#58595B" d="M271.725,227.952c-0.063-0.085-0.096-0.181-0.096-0.288c0-0.277,0.145-0.512,0.432-0.704
		c0.289-0.192,0.571-0.288,0.849-0.288c0.171,0,0.325,0.032,0.464,0.096c0.139,0.064,0.229,0.182,0.271,0.353l4.385,11.776
		l4.128-11.776c0.128-0.299,0.362-0.448,0.704-0.448c0.256,0,0.533,0.096,0.832,0.288s0.447,0.438,0.447,0.736
		c0,0.043,0,0.085,0,0.128s-0.021,0.085-0.063,0.128l-4.96,13.439c-0.32,0.875-0.667,1.781-1.04,2.721
		c-0.374,0.938-0.815,1.802-1.328,2.592c-0.512,0.789-1.104,1.439-1.776,1.952c-0.672,0.512-1.455,0.768-2.352,0.768
		c-0.277,0-0.507-0.063-0.688-0.191c-0.182-0.129-0.272-0.374-0.272-0.736c0-0.235,0.048-0.453,0.144-0.656
		c0.097-0.203,0.262-0.304,0.496-0.304c0.512,0,1.003-0.166,1.473-0.496c0.469-0.331,0.906-0.779,1.312-1.344
		c0.405-0.565,0.769-1.222,1.089-1.969c0.319-0.746,0.575-1.535,0.768-2.367L271.725,227.952z"/>
</g>
</svg>
