<?xml version="1.0" encoding="utf-8"?>
<!-- Generator: Adobe Illustrator 16.0.0, SVG Export Plug-In . SVG Version: 6.00 Build 0)  -->
<!DOCTYPE svg PUBLIC "-//W3C//DTD SVG 1.1//EN" "http://www.w3.org/Graphics/SVG/1.1/DTD/svg11.dtd">
<svg version="1.1" id="Layer_1" xmlns="http://www.w3.org/2000/svg" xmlns:xlink="http://www.w3.org/1999/xlink" x="0px" y="0px"
	 width="32px" height="32px" viewBox="0 0 32 32" enable-background="new 0 0 32 32" xml:space="preserve">
<path fill="#FFFFFF" d="M16.003,0C7.17,0,0.008,7.162,0.008,15.997c0,7.067,4.582,13.063,10.94,15.179
	c0.8,0.146,1.052-0.328,1.052-0.752c0-0.38,0.008-1.441,0-2.777c-4.449,0.968-5.371-2.106-5.371-2.106
	c-0.727-1.849-1.775-2.34-1.775-2.34c-1.452-0.992,0.109-0.974,0.109-0.974c1.605,0.113,2.451,1.649,2.451,1.649
	c1.427,2.442,3.743,1.737,4.654,1.329c0.146-1.034,0.56-1.739,1.017-2.139c-3.552-0.404-7.286-1.776-7.286-7.906
	c0-1.747,0.623-3.174,1.646-4.292C7.28,10.464,6.73,8.837,7.602,6.634c0,0,1.343-0.43,4.398,1.641
	c1.276-0.355,2.645-0.532,4.005-0.538c1.359,0.006,2.728,0.183,4.005,0.538c3.055-2.07,4.396-1.641,4.396-1.641
	c0.871,2.203,0.322,3.83,0.158,4.234c1.023,1.118,1.645,2.545,1.645,4.292c0,6.146-3.74,7.498-7.305,7.893
	C19.479,23.548,20,24.508,20,26c0,2,0,3.902,0,4.428c0,0.428,0.258,0.901,1.07,0.746C27.422,29.055,32,23.063,32,15.997
	C32,7.162,24.838,0,16.003,0z"/>
</svg>
