<?xml version="1.0" encoding="utf-8"?>
<!-- Generator: Adobe Illustrator 16.0.0, SVG Export Plug-In . SVG Version: 6.00 Build 0)  -->
<!DOCTYPE svg PUBLIC "-//W3C//DTD SVG 1.1//EN" "http://www.w3.org/Graphics/SVG/1.1/DTD/svg11.dtd">
<svg version="1.1" id="Layer_1" xmlns="http://www.w3.org/2000/svg" xmlns:xlink="http://www.w3.org/1999/xlink" x="0px" y="0px"
	 width="58.623px" height="35.279px" viewBox="0 0 58.623 35.279" enable-background="new 0 0 58.623 35.279" xml:space="preserve">
<g>
	<path fill="#DAC582" d="M7.456,15.92c0-0.234,0.128-0.459,0.384-0.672c0.256-0.213,0.581-0.395,0.977-0.544
		c0.395-0.148,0.842-0.267,1.344-0.352c0.501-0.085,0.997-0.128,1.488-0.128c1.407,0,2.549,0.352,3.424,1.056
		c0.874,0.704,1.312,1.729,1.312,3.072v5.344c0.064,0.512,0.251,0.902,0.561,1.168c0.309,0.268,0.655,0.4,1.04,0.4
		c0.447,0,0.805-0.16,1.071-0.48c0.267-0.319,0.475-0.72,0.624-1.2c0.149-0.479,0.251-0.997,0.305-1.552
		c0.053-0.554,0.08-1.077,0.08-1.567c0-2.815-0.673-5.008-2.017-6.575c-1.344-1.568-3.413-2.353-6.208-2.353
		c-1.6,0-2.938,0.256-4.016,0.769c-1.078,0.512-1.937,1.194-2.576,2.048c-0.64,0.854-1.099,1.84-1.376,2.96S3.456,19.6,3.456,20.815
		c0,1.131,0.122,2.219,0.368,3.264c0.245,1.045,0.656,1.973,1.231,2.784c0.576,0.812,1.333,1.456,2.272,1.937
		c0.938,0.479,2.112,0.721,3.52,0.721c0.683,0,1.27-0.048,1.761-0.145c0.49-0.096,0.906-0.208,1.248-0.336
		c0.341-0.128,0.624-0.24,0.848-0.336s0.421-0.144,0.592-0.144c0.234,0,0.421,0.101,0.561,0.304
		c0.138,0.203,0.208,0.379,0.208,0.528c0,0.256-0.177,0.496-0.528,0.72c-0.353,0.224-0.8,0.421-1.344,0.592
		c-0.544,0.17-1.142,0.304-1.792,0.4c-0.651,0.096-1.265,0.144-1.841,0.144c-1.173,0-2.299-0.208-3.376-0.624
		s-2.031-1.045-2.863-1.888s-1.499-1.92-2-3.231c-0.502-1.313-0.752-2.863-0.752-4.655c0-1.536,0.196-2.981,0.592-4.336
		c0.395-1.354,1.013-2.533,1.855-3.536c0.843-1.002,1.915-1.792,3.217-2.368c1.301-0.576,2.848-0.864,4.64-0.864
		c3.242,0,5.733,0.901,7.472,2.704c1.738,1.803,2.608,4.368,2.608,7.696c0,0.875-0.075,1.718-0.225,2.527
		c-0.15,0.811-0.389,1.525-0.72,2.145s-0.757,1.115-1.28,1.488c-0.522,0.373-1.157,0.56-1.903,0.56c-0.832,0-1.536-0.213-2.112-0.64
		c-0.576-0.428-0.928-0.929-1.056-1.504c-0.556,0.598-1.12,1.062-1.696,1.392c-0.576,0.331-1.323,0.496-2.24,0.496
		c-0.533,0-1.045-0.064-1.536-0.192c-0.49-0.128-0.917-0.331-1.279-0.607c-0.363-0.277-0.656-0.646-0.88-1.104
		c-0.225-0.458-0.336-1.008-0.336-1.647c0-0.726,0.148-1.328,0.447-1.809c0.299-0.479,0.726-0.864,1.28-1.151
		c0.554-0.288,1.221-0.485,2-0.593c0.778-0.106,1.648-0.159,2.608-0.159h1.279v-0.576c0-0.875-0.239-1.521-0.72-1.937
		s-1.243-0.624-2.288-0.624c-0.512,0-0.934,0.043-1.264,0.128c-0.331,0.085-0.608,0.177-0.832,0.272
		c-0.225,0.096-0.405,0.188-0.544,0.271c-0.14,0.085-0.272,0.128-0.4,0.128c-0.234,0-0.427-0.133-0.576-0.399
		C7.53,16.341,7.456,16.111,7.456,15.92z M14.368,20.783h-1.152c-0.64,0-1.222,0.032-1.744,0.097
		c-0.522,0.063-0.971,0.177-1.344,0.336c-0.373,0.16-0.667,0.39-0.88,0.688c-0.214,0.299-0.32,0.684-0.32,1.152
		c0,0.683,0.203,1.173,0.608,1.472c0.405,0.299,0.917,0.448,1.536,0.448c0.49,0,0.938-0.08,1.344-0.24
		c0.406-0.16,0.752-0.368,1.04-0.624s0.512-0.538,0.672-0.848s0.24-0.613,0.24-0.912V20.783z"/>
	<path fill="#FFFFFF" d="M30.399,27.952c-0.875,0-1.695-0.171-2.464-0.512c-0.768-0.341-1.439-0.794-2.016-1.36
		c-0.576-0.564-1.029-1.216-1.36-1.952c-0.331-0.735-0.496-1.509-0.496-2.319v-8.32c0-0.234,0.128-0.453,0.384-0.656
		c0.257-0.203,0.576-0.304,0.96-0.304c0.342,0,0.646,0.102,0.912,0.304c0.267,0.203,0.4,0.421,0.4,0.656v8.32
		c0,0.47,0.096,0.928,0.288,1.376c0.192,0.447,0.453,0.848,0.784,1.199c0.33,0.353,0.72,0.636,1.168,0.849
		c0.447,0.214,0.929,0.319,1.438,0.319c0.514,0,0.986-0.105,1.424-0.319c0.438-0.213,0.822-0.49,1.152-0.832
		c0.332-0.341,0.592-0.736,0.784-1.185c0.192-0.447,0.288-0.917,0.288-1.407v-8.353c0-0.234,0.133-0.448,0.398-0.64
		c0.268-0.192,0.582-0.288,0.945-0.288c0.383,0,0.697,0.096,0.943,0.288c0.245,0.191,0.368,0.405,0.368,0.64v8.353
		c0,0.811-0.166,1.589-0.496,2.336c-0.331,0.747-0.784,1.402-1.36,1.968c-0.576,0.564-1.248,1.014-2.016,1.344
		C32.063,27.786,31.253,27.952,30.399,27.952z"/>
	<path fill="#FFFFFF" d="M42.144,22.863c0,0.918,0.191,1.563,0.575,1.937c0.386,0.373,1.077,0.561,2.08,0.561h0.992
		c0.362,0,0.646,0.118,0.849,0.353c0.202,0.234,0.305,0.501,0.305,0.801c0,0.299-0.103,0.57-0.305,0.815
		c-0.203,0.246-0.486,0.368-0.849,0.368h-0.992c-1.728,0-3.045-0.384-3.952-1.152c-0.906-0.768-1.359-1.995-1.359-3.68V6.384
		c0-0.276,0.145-0.501,0.433-0.672s0.581-0.256,0.88-0.256c0.342,0,0.65,0.085,0.93,0.256c0.275,0.171,0.416,0.396,0.416,0.672
		v6.145h4.03c0.234,0,0.427,0.106,0.576,0.32c0.149,0.213,0.224,0.459,0.224,0.735c0,0.278-0.074,0.519-0.224,0.721
		s-0.342,0.304-0.576,0.304h-4.03v8.255H42.144z"/>
	<path fill="#FFFFFF" d="M49.983,5.328c0.447,0,0.832,0.149,1.15,0.448c0.32,0.299,0.48,0.65,0.48,1.056
		c0,0.406-0.16,0.764-0.48,1.072c-0.318,0.31-0.703,0.464-1.15,0.464c-0.471,0-0.864-0.155-1.186-0.464
		c-0.318-0.309-0.479-0.666-0.479-1.072c0-0.405,0.16-0.757,0.479-1.056C49.119,5.477,49.515,5.328,49.983,5.328z M49.983,12.527
		c0.361,0,0.677,0.086,0.942,0.256c0.267,0.171,0.4,0.396,0.4,0.672v13.28c0,0.235-0.134,0.454-0.4,0.656s-0.581,0.304-0.942,0.304
		c-0.363,0-0.672-0.102-0.928-0.304c-0.258-0.203-0.386-0.421-0.386-0.656v-13.28c0-0.276,0.128-0.501,0.386-0.672
		C49.312,12.613,49.62,12.527,49.983,12.527z"/>
	<path fill="#FFFFFF" d="M55.903,3.375c0.361,0,0.677,0.085,0.943,0.256c0.266,0.171,0.399,0.396,0.399,0.673v22.432
		c0,0.235-0.134,0.454-0.399,0.656c-0.268,0.202-0.582,0.304-0.943,0.304c-0.385,0-0.699-0.102-0.944-0.304
		c-0.245-0.203-0.368-0.421-0.368-0.656V4.304c0-0.277,0.123-0.501,0.368-0.673C55.204,3.461,55.519,3.375,55.903,3.375z"/>
</g>
</svg>
